<svg width="50" height="46" viewBox="0 0 50 46" fill="none" xmlns="http://www.w3.org/2000/svg">
<path d="M17.0148 5.7524C17.4981 4.48381 18.1626 3.31589 19.1493 2.36947C23.0961 -1.47659 29.6203 -0.510043 32.2984 4.32271C34.3121 7.98756 36.4466 11.5718 38.5206 15.1964L48.911 33.279C51.7906 38.3332 48.6694 44.7165 42.9506 45.5824C39.4469 46.1059 36.1646 44.495 34.3524 41.3537L25.2104 25.4862C25.15 25.3653 25.0694 25.2647 24.9889 25.164C24.6667 24.9022 24.5258 24.5196 24.3244 24.1773L17.5988 12.5183C16.8135 11.149 16.451 9.65888 16.4913 8.08824C16.5517 7.28278 16.6524 6.47732 17.0148 5.7524Z" fill="#3C8BD9"/>
<path d="M17.0149 5.75269C16.8337 6.4776 16.6726 7.20251 16.6323 7.9677C16.5719 9.65916 16.9948 11.2298 17.8405 12.6998L24.4654 24.1574C24.6668 24.4998 24.8279 24.8421 25.0293 25.1643L21.3845 31.4267L16.29 40.2062C16.2095 40.2062 16.1893 40.1659 16.1692 40.1055C16.1491 39.9444 16.2095 39.8035 16.2497 39.6424C17.0753 36.6219 16.3907 33.9438 14.3166 31.6482C13.048 30.2588 11.4371 29.4735 9.58456 29.2117C7.16819 28.8694 5.03372 29.4936 3.12075 31.0038C2.77843 31.2656 2.55693 31.6482 2.1542 31.8496C2.07365 31.8496 2.03338 31.8093 2.01324 31.7489L4.89276 26.7349L16.874 5.97419C16.9142 5.89364 16.9747 5.83323 17.0149 5.75269Z" fill="#FABC04"/>
<path d="M2.09375 31.8089L3.24153 30.782C8.13469 26.9158 15.4845 29.7147 16.5517 35.8362C16.8135 37.3062 16.6726 38.7158 16.2296 40.1253C16.2094 40.2461 16.1893 40.3468 16.149 40.4676C15.9678 40.7898 15.8067 41.1321 15.6053 41.4543C13.8132 44.4144 11.1753 45.8844 7.71183 45.6628C3.74494 45.3809 0.623785 42.4007 0.0801001 38.454C-0.181674 36.541 0.200919 34.7489 1.18761 33.0977C1.38897 32.7352 1.63061 32.413 1.85211 32.0506C1.95279 31.97 1.91252 31.8089 2.09375 31.8089Z" fill="#34A852"/>
<path d="M2.09389 31.8089C2.01335 31.8894 2.01335 32.0304 1.87239 32.0505C1.85226 31.9096 1.9328 31.829 2.01335 31.7283L2.09389 31.8089Z" fill="#FABC04"/>
<path d="M16.1491 40.4673C16.0686 40.3263 16.1491 40.2256 16.2297 40.1249L16.3102 40.2055L16.1491 40.4673Z" fill="#E1C025"/>
</svg>
