<svg width="66" height="54" viewBox="0 0 66 54" fill="none" xmlns="http://www.w3.org/2000/svg">
<path d="M66 6.39239C63.5285 7.49467 60.9071 8.21821 58.2228 8.53894C61.0188 6.85181 63.1656 4.18018 64.1765 0.996962C61.5186 2.5849 58.6106 3.7037 55.5782 4.30503C53.1081 1.65572 49.5892 0 45.6944 0C38.2163 0 32.1533 6.10377 32.1533 13.632C32.1533 14.7006 32.2732 15.7409 32.504 16.7389C21.2505 16.1702 11.2731 10.7431 4.59448 2.49539C3.42916 4.50878 2.76143 6.85077 2.76143 9.34876C2.76143 14.0784 5.15212 18.2508 8.78522 20.6956C6.63493 20.6278 4.53195 20.0431 2.65186 18.9903C2.65109 19.0474 2.65109 19.1045 2.65109 19.1619C2.65109 25.7668 7.31852 31.2767 13.5127 32.5291C11.5188 33.0751 9.42725 33.155 7.39793 32.7627C9.12089 38.1786 14.1217 42.1198 20.0467 42.2301C15.4125 45.8862 9.57387 48.0657 3.23013 48.0657C2.13701 48.0657 1.05935 48.0011 0 47.8752C5.99234 51.7431 13.1098 54 20.7565 54C45.663 54 59.2824 33.2273 59.2824 15.213C59.2824 14.6217 59.2696 14.0338 59.2433 13.4493C61.8942 11.5199 64.1822 9.13025 66 6.39239Z" fill="#55ACEE"/>
</svg>
