<svg width="20" height="20" viewBox="0 0 20 20" fill="none" xmlns="http://www.w3.org/2000/svg">
<path d="M14.14 0.960043L5.11 3.96004C-0.959997 5.99004 -0.959997 9.30004 5.11 11.32L7.79 12.21L8.68 14.89C10.7 20.96 14.02 20.96 16.04 14.89L19.05 5.87004C20.39 1.82004 18.19 -0.389957 14.14 0.960043ZM14.46 6.34004L10.66 10.16C10.51 10.31 10.32 10.38 10.13 10.38C9.94 10.38 9.75 10.31 9.6 10.16C9.31 9.87004 9.31 9.39004 9.6 9.10004L13.4 5.28004C13.69 4.99004 14.17 4.99004 14.46 5.28004C14.75 5.57004 14.75 6.05004 14.46 6.34004Z" fill="#7981A3"/>
</svg>
