<svg width="21" height="20" viewBox="0 0 21 20" fill="none" xmlns="http://www.w3.org/2000/svg">
<path d="M20.98 9.40995C20.64 3.60995 15.37 -0.860038 9.29998 0.139962C5.11998 0.829962 1.76999 4.21994 1.11999 8.39994C0.739988 10.8199 1.24001 13.1099 2.33001 14.9999L1.43999 18.3099C1.23999 19.0599 1.92998 19.7399 2.66998 19.5299L5.92999 18.63C7.40999 19.5 9.13998 19.9999 10.99 19.9999C16.63 19.9999 21.31 15.03 20.98 9.40995ZM15.88 13.7199C15.79 13.8999 15.68 14.07 15.54 14.23C15.29 14.5 15.02 14.7 14.72 14.82C14.42 14.95 14.09 15.01 13.74 15.01C13.23 15.01 12.68 14.89 12.11 14.64C11.53 14.39 10.96 14.0599 10.39 13.6499C9.81001 13.2299 9.26999 12.7599 8.74999 12.2499C8.22999 11.7299 7.76997 11.1799 7.34997 10.6099C6.93997 10.0399 6.60999 9.46994 6.36999 8.89994C6.12999 8.32994 6.01 7.77996 6.01 7.25996C6.01 6.91996 6.06999 6.58996 6.18999 6.28996C6.30999 5.97996 6.50001 5.69996 6.77001 5.44996C7.09001 5.12996 7.43999 4.97996 7.80999 4.97996C7.94999 4.97996 8.08996 5.00995 8.21996 5.06995C8.34996 5.12995 8.46999 5.21995 8.55999 5.34995L9.71996 6.98994C9.80996 7.11994 9.87998 7.22994 9.91998 7.33994C9.96998 7.44994 9.98998 7.54994 9.98998 7.64994C9.98998 7.76994 9.95 7.88996 9.88 8.00996C9.81 8.12996 9.71997 8.24994 9.59997 8.36994L9.21996 8.76994C9.15996 8.82994 9.14001 8.88995 9.14001 8.96995C9.14001 9.00995 9.14997 9.04994 9.15997 9.08994C9.17997 9.12994 9.19 9.15995 9.2 9.18995C9.29 9.35995 9.44998 9.56993 9.66998 9.82993C9.89997 10.0899 10.14 10.3599 10.4 10.6199C10.67 10.8899 10.93 11.1299 11.2 11.3599C11.46 11.5799 11.68 11.73 11.85 11.82C11.88 11.83 11.91 11.8499 11.94 11.8599C11.98 11.8799 12.02 11.88 12.07 11.88C12.16 11.88 12.22 11.85 12.28 11.79L12.66 11.41C12.79 11.28 12.91 11.19 13.02 11.13C13.14 11.06 13.25 11.0199 13.38 11.0199C13.48 11.0199 13.58 11.0399 13.69 11.0899C13.8 11.1399 13.92 11.2 14.04 11.29L15.7 12.4699C15.83 12.5599 15.92 12.67 15.98 12.79C16.03 12.92 16.06 13.0399 16.06 13.1799C16 13.3499 15.96 13.5399 15.88 13.7199Z" fill="#7981A3"/>
</svg>
